# xmcd CD database file
#
# Track frame offsets:
#	150
#	18048
#	139705
#	167675
#	187073
#	210608
#
# Disc length: 3025 seconds
#
# Revision: 1
# Processed by: cddbd v1.5.1PL0 Copyright (c) Steve Scherf et al.
# Submitted via: CDex 1.51
#
DISCID=4a0bcf06
DTITLE=Various Artist - 聖闘士星矢　1997−少年記−
DYEAR=1997
DGENRE=Anime
TTITLE0=影山ヒロノブ/BURNING BLOOD
TTITLE1=ドラマ「DO CVIDANIJA−約束の時−」
TTITLE2=影山ヒロノブ/Born To Be A Soldier
TTITLE3=遠藤正明/I Leave My Heart
TTITLE4=堀江美都子/SHINING STAR
TTITLE5=影山ヒロノブ/SOLDIER DREAM
EXTD=YEAR: 1997
EXTT0=
EXTT1=
EXTT2=
EXTT3=
EXTT4=
EXTT5=
PLAYORDER=
